<svg width="1746" height="294" viewBox="0 0 1746 294" fill="none" xmlns="http://www.w3.org/2000/svg">
<path d="M1412.41 168.109C1412.41 236.972 1361.99 292.796 1299.79 292.796C1237.59 292.796 1187.17 236.972 1187.17 168.109C1187.17 99.246 1237.59 43.4215 1299.79 43.4215C1361.99 43.4215 1412.41 99.246 1412.41 168.109ZM1223.18 168.109C1223.18 214.952 1257.48 252.925 1299.79 252.925C1342.1 252.925 1376.4 214.952 1376.4 168.109C1376.4 121.266 1342.1 83.2924 1299.79 83.2924C1257.48 83.2924 1223.18 121.266 1223.18 168.109Z" fill="#e6edf3"/>
<path d="M1079.65 168.109C1079.65 236.972 1029.22 292.796 967.026 292.796C904.827 292.796 854.405 236.972 854.405 168.109C854.405 99.246 904.827 43.4215 967.026 43.4215C1029.22 43.4215 1079.65 99.246 1079.65 168.109ZM890.418 168.109C890.418 214.952 924.716 252.925 967.026 252.925C1009.34 252.925 1043.63 214.952 1043.63 168.109C1043.63 121.266 1009.34 83.2924 967.026 83.2924C924.716 83.2924 890.418 121.266 890.418 168.109Z" fill="#e6edf3"/>
<path d="M372.739 188.22V147.998H597.98V188.22H372.739Z" fill="#e6edf3"/>
<path d="M372.739 55.4533H413.21V253.433H372.739V55.4533Z" fill="#e6edf3"/>
<path d="M557.593 82.7986H598.064V187.804H557.593V82.7986Z" fill="#e6edf3"/>
<path d="M372.739 83.6435V43.4218H557.759C579.972 43.4218 597.98 61.4297 597.98 83.6435H372.739Z" fill="#e6edf3"/>
<path d="M412.96 292.797C390.746 292.797 372.739 274.789 372.739 252.575H597.98C597.98 274.789 579.972 292.797 557.759 292.797H412.96Z" fill="#e6edf3"/>
<path d="M746.48 292.796C724.404 292.796 706.508 274.9 706.508 252.824V0C728.584 0 746.48 17.8962 746.48 39.9722V292.796Z" fill="#e6edf3"/>
<path d="M1519.94 43.4215H1560.16V292.796C1537.95 292.796 1519.94 274.788 1519.94 252.575V43.4215Z" fill="#e6edf3"/>
<path d="M1704.96 43.4215C1727.17 43.4215 1745.18 61.4294 1745.18 83.6433V292.796H1704.96V43.4215Z" fill="#e6edf3"/>
<path d="M1519.94 83.644V43.4215L1704.96 43.4223V83.644H1519.94Z" fill="#e6edf3"/>
<path d="M119.452 24.4525L148.585 0.21001L264.632 293.184L230.993 293.184L119.452 24.4525Z" fill="#e6edf3"/>
<path d="M114.967 0.210367L148.606 0.210434L33.6395 293.185H0L114.967 0.210367Z" fill="#e6edf3"/>
</svg>
