<svg width="1267" height="850" viewBox="0 0 1267 850" fill="none" xmlns="http://www.w3.org/2000/svg">
<path d="M1053.46 805.232C1053.46 829.344 1035.8 848.891 1014.02 848.891C992.246 848.891 974.591 829.344 974.591 805.232C974.591 781.119 992.246 761.572 1014.02 761.572C1035.8 761.572 1053.46 781.119 1053.46 805.232ZM987.201 805.232C987.201 821.634 999.21 834.93 1014.02 834.93C1028.84 834.93 1040.85 821.634 1040.85 805.232C1040.85 788.83 1028.84 775.533 1014.02 775.533C999.21 775.533 987.201 788.83 987.201 805.232Z" fill="black"/>
<path d="M1040.74 761.572C1047.76 761.572 1053.46 767.268 1053.46 774.293V848.891H1040.74V761.572Z" fill="black"/>
<path d="M466.689 812.266V798.227L544.998 798.104V812.266H466.689Z" fill="black"/>
<path d="M465.856 775.818C465.856 768.04 472.656 761.572 480.434 761.572H544.998V775.818H465.856Z" fill="black"/>
<path d="M480.423 849.052C472.644 849.052 465.856 842.747 465.856 834.969H545.207V849.052H480.423Z" fill="black"/>
<path d="M862.399 812.274V798.19H941.541V812.274H862.399Z" fill="black"/>
<path d="M862.399 775.656C862.399 767.878 868.705 761.572 876.483 761.572H941.541V775.656H862.399Z" fill="black"/>
<path d="M876.483 848.891C868.705 848.891 862.399 842.585 862.399 834.807H941.268V848.891H876.483Z" fill="black"/>
<path d="M274.349 739.913H288.432V849.061H274.349V739.913Z" fill="black"/>
<path d="M241.956 775.826V761.742H306.741C314.519 761.742 320.825 768.048 320.825 775.826H241.956Z" fill="black"/>
<path d="M1220.52 739.913H1234.61V849.061H1220.52V739.913Z" fill="black"/>
<path d="M1188.13 775.826V761.742H1252.92C1260.69 761.742 1267 768.048 1267 775.826H1188.13Z" fill="black"/>
<path d="M354.148 739.905H368.231V849.053H354.148V739.905Z" fill="black"/>
<path d="M418.932 761.734C426.71 761.734 433.016 768.04 433.016 775.818V849.053H418.932V761.734Z" fill="black"/>
<path d="M354.148 775.818V761.734L418.932 761.734L418.932 775.818H354.148Z" fill="black"/>
<path d="M749.934 739.913H764.018V849.061H749.934V739.913Z" fill="black"/>
<path d="M814.914 739.913C822.736 739.913 829.076 746.253 829.076 754.075V849.045H814.914V739.913Z" fill="black"/>
<path d="M749.934 775.735V761.572H820.746V775.735H749.934Z" fill="black"/>
<path d="M578.53 761.734H592.614V849.053H578.53V761.734Z" fill="black"/>
<path d="M578.53 775.818V761.734L643.315 761.734C651.093 761.734 657.399 768.04 657.399 775.818H578.53Z" fill="black"/>
<path d="M1086.78 761.572H1100.87V848.891H1086.78V761.572Z" fill="black"/>
<path d="M1086.78 775.656V761.572L1151.57 761.573C1159.35 761.573 1165.65 767.878 1165.65 775.656H1086.78Z" fill="black"/>
<path d="M44.373 749.219L55.195 740.214L98.3032 849.045L85.8071 849.045L44.373 749.219Z" fill="black"/>
<path d="M42.7069 740.214L55.203 740.214L12.4961 849.045H0L42.7069 740.214Z" fill="black"/>
<path d="M208.423 812.39H130.96V798.228H208.423V812.39Z" fill="black"/>
<path d="M208.633 849.045L139.82 849.045V834.883H208.633V849.045Z" fill="black"/>
<path d="M194.26 761.572C202.082 761.573 208.435 767.913 208.435 775.735H129.293V761.572H194.26Z" fill="black"/>
<path d="M194.273 774.902H208.435V798.228H194.273V774.902Z" fill="black"/>
<path d="M530.835 775.735H544.998V803.226H530.835V775.735Z" fill="black"/>
<path d="M465.856 775.735H480.018V835.716H465.856V775.735Z" fill="black"/>
<path d="M129.293 768.237H143.456V849.045H129.293V768.237Z" fill="black"/>
<path d="M927.379 774.069H941.541V803.226H927.379V774.069Z" fill="black"/>
<path d="M862.399 774.902H876.562V835.716H862.399V774.902Z" fill="black"/>
<path d="M863.265 165L767 0H895.5L991 165H863.265Z" fill="black"/>
<path d="M1005.5 191H879.5L1142.5 644H1267L1005.5 191Z" fill="black"/>
<path d="M576.5 0H388L760 644H948L576.5 0Z" fill="black"/>
<path d="M374.5 0H420.5L48.5 644H2.5L374.5 0Z" fill="black"/>
<path d="M2.5 644L881 191H894L937 286L242 644H2.5Z" fill="black"/>
<path d="M641.5 439L586 343L569.5 351.5L624.5 447L641.5 439Z" fill="#F5F5F5"/>
<path d="M802.5 355.5L747 259L729.25 265.057L786.85 365L802.5 355.5Z" fill="#F5F5F5"/>
</svg>
