<?plantuml 1.2026.1?><svg xmlns="http://www.w3.org/2000/svg" xmlns:xlink="http://www.w3.org/1999/xlink" contentStyleType="text/css" data-diagram-type="DESCRIPTION" height="682px" preserveAspectRatio="none" style="width:891px;height:682px;background:#FFFFFF;" version="1.1" viewBox="0 0 891 682" width="891px" zoomAndPan="magnify"><title>Aeloon &#26234;&#33021;&#20307;&#31995;&#32479;&#26550;&#26500;</title><defs/><g><g class="title" data-source-line="8"><text fill="#000000" font-family="'Noto Sans CJK SC, DejaVu Sans'" font-size="22" font-weight="bold" lengthAdjust="spacing" textLength="234.4548" x="323.9942" y="48.5201">Aeloon &#26234;&#33021;&#20307;&#31995;&#32479;&#26550;&#26500;</text></g><!--cluster L5--><g class="cluster" data-qualified-name="L5" data-source-line="26" id="ent0008"><rect fill="#FFF3E0" height="329.86" rx="5" ry="5" style="stroke:#000000;stroke-width:1;" width="374" x="330.5445" y="346.6761"/><text fill="#000000" font-family="'Noto Sans CJK SC, DejaVu Sans'" font-size="14" font-weight="bold" lengthAdjust="spacing" textLength="137.6615" x="448.7137" y="372.916">&#33021;&#21147;&#23618; (Capabilities)</text></g><!--entity Gap--><g class="entity" data-qualified-name="L5.Gap" data-source-line="27" id="ent0009"><ellipse cx="357.5445" cy="447.9461" fill="#FFFFFF" rx="3" ry="3" style="stroke:none;stroke-width:1;"/></g><!--entity L5T--><g class="entity" data-qualified-name="L5.L5T" data-source-line="28" id="ent0010"><rect fill="#FFF3E0" height="76.5438" rx="5" ry="5" style="stroke:#000000;stroke-width:1;" width="81.3458" x="395.8645" y="409.6761"/><text fill="#000000" font-family="'Noto Sans CJK SC, DejaVu Sans'" font-size="14" lengthAdjust="spacing" textLength="13.9999" x="413.8645" y="443.916">&#24037;</text><text fill="#000000" font-family="'Noto Sans CJK SC, DejaVu Sans'" font-size="14" lengthAdjust="spacing" textLength="13.9999" x="427.8644" y="443.916">&#20855;</text><text fill="#000000" font-family="'Noto Sans CJK SC, DejaVu Sans'" font-size="14" lengthAdjust="spacing" textLength="45.3458" x="413.8645" y="464.1879">(Tools)</text></g><!--entity L5M--><g class="entity" data-qualified-name="L5.L5M" data-source-line="29" id="ent0011"><rect fill="#FFEBEE" height="76.5438" rx="5" ry="5" style="stroke:#000000;stroke-width:1;" width="148.9795" x="512.0545" y="409.6761"/><text fill="#000000" font-family="'Noto Sans CJK SC, DejaVu Sans'" font-size="14" lengthAdjust="spacing" textLength="13.9999" x="530.0545" y="443.916">&#35760;</text><text fill="#000000" font-family="'Noto Sans CJK SC, DejaVu Sans'" font-size="14" lengthAdjust="spacing" textLength="13.9999" x="544.0544" y="443.916">&#24518;</text><text fill="#000000" font-family="'Noto Sans CJK SC, DejaVu Sans'" font-size="14" lengthAdjust="spacing" textLength="13.9999" x="558.0543" y="443.916">&#19982;</text><text fill="#000000" font-family="'Noto Sans CJK SC, DejaVu Sans'" font-size="14" lengthAdjust="spacing" textLength="13.9999" x="572.0543" y="443.916">&#25216;</text><text fill="#000000" font-family="'Noto Sans CJK SC, DejaVu Sans'" font-size="14" lengthAdjust="spacing" textLength="13.9999" x="586.0542" y="443.916">&#33021;</text><text fill="#000000" font-family="'Noto Sans CJK SC, DejaVu Sans'" font-size="14" lengthAdjust="spacing" textLength="58.0298" x="530.0545" y="464.1879">(Memory</text><text fill="#000000" font-family="'Noto Sans CJK SC, DejaVu Sans'" font-size="14" lengthAdjust="spacing" textLength="3.136" x="588.0842" y="464.1879">&#160;</text><text fill="#000000" font-family="'Noto Sans CJK SC, DejaVu Sans'" font-size="14" lengthAdjust="spacing" textLength="9.52" x="591.2202" y="464.1879">&amp;</text><text fill="#000000" font-family="'Noto Sans CJK SC, DejaVu Sans'" font-size="14" lengthAdjust="spacing" textLength="3.136" x="600.7402" y="464.1879">&#160;</text><text fill="#000000" font-family="'Noto Sans CJK SC, DejaVu Sans'" font-size="14" lengthAdjust="spacing" textLength="39.1578" x="603.8761" y="464.1879">Skills)</text></g><!--entity L5P--><g class="entity" data-qualified-name="L5.L5P" data-source-line="30" id="ent0012"><rect fill="#ECEFF1" height="96.8157" rx="5" ry="5" style="stroke:#000000;stroke-width:1;" width="133.9996" x="370.5445" y="555.7161"/><text fill="#000000" font-family="'Noto Sans CJK SC, DejaVu Sans'" font-size="14" lengthAdjust="spacing" textLength="13.9999" x="388.5445" y="589.956">&#25554;</text><text fill="#000000" font-family="'Noto Sans CJK SC, DejaVu Sans'" font-size="14" lengthAdjust="spacing" textLength="13.9999" x="402.5444" y="589.956">&#20214;</text><text fill="#000000" font-family="'Noto Sans CJK SC, DejaVu Sans'" font-size="14" lengthAdjust="spacing" textLength="13.9999" x="416.5443" y="589.956">&#19982;</text><text fill="#000000" font-family="'Noto Sans CJK SC, DejaVu Sans'" font-size="14" lengthAdjust="spacing" textLength="13.9999" x="430.5443" y="589.956">&#21518;</text><text fill="#000000" font-family="'Noto Sans CJK SC, DejaVu Sans'" font-size="14" lengthAdjust="spacing" textLength="13.9999" x="444.5442" y="589.956">&#21488;</text><text fill="#000000" font-family="'Noto Sans CJK SC, DejaVu Sans'" font-size="14" lengthAdjust="spacing" textLength="13.9999" x="458.5442" y="589.956">&#26381;</text><text fill="#000000" font-family="'Noto Sans CJK SC, DejaVu Sans'" font-size="14" lengthAdjust="spacing" textLength="13.9999" x="472.5441" y="589.956">&#21153;</text><text fill="#000000" font-family="'Noto Sans CJK SC, DejaVu Sans'" font-size="14" lengthAdjust="spacing" textLength="46.3538" x="388.5445" y="610.2279">(Plugin</text><text fill="#000000" font-family="'Noto Sans CJK SC, DejaVu Sans'" font-size="14" lengthAdjust="spacing" textLength="3.136" x="434.8983" y="610.2279">&#160;</text><text fill="#000000" font-family="'Noto Sans CJK SC, DejaVu Sans'" font-size="14" lengthAdjust="spacing" textLength="27.0199" x="438.0343" y="610.2279">SDK</text><text fill="#000000" font-family="'Noto Sans CJK SC, DejaVu Sans'" font-size="14" lengthAdjust="spacing" textLength="3.136" x="465.0542" y="610.2279">&#160;</text><text fill="#000000" font-family="'Noto Sans CJK SC, DejaVu Sans'" font-size="14" lengthAdjust="spacing" textLength="9.52" x="468.1901" y="610.2279">&amp;</text><text fill="#000000" font-family="'Noto Sans CJK SC, DejaVu Sans'" font-size="14" lengthAdjust="spacing" textLength="58.8558" x="388.5445" y="630.4999">Services)</text></g><!--entity ACPBridge--><g class="entity" data-qualified-name="L5.ACPBridge" data-source-line="31" id="ent0013"><rect fill="#E1F5FE" height="76.5438" rx="5" ry="5" style="stroke:#000000;stroke-width:1;" width="117.7177" x="541.6845" y="565.8561"/><text fill="#000000" font-family="'Noto Sans CJK SC, DejaVu Sans'" font-size="14" lengthAdjust="spacing" textLength="26.3059" x="559.6845" y="600.096">ACP</text><text fill="#000000" font-family="'Noto Sans CJK SC, DejaVu Sans'" font-size="14" lengthAdjust="spacing" textLength="3.136" x="585.9904" y="600.096">&#160;</text><text fill="#000000" font-family="'Noto Sans CJK SC, DejaVu Sans'" font-size="14" lengthAdjust="spacing" textLength="13.9999" x="589.1263" y="600.096">&#26725;</text><text fill="#000000" font-family="'Noto Sans CJK SC, DejaVu Sans'" font-size="14" lengthAdjust="spacing" textLength="13.9999" x="603.1263" y="600.096">&#25509;</text><text fill="#000000" font-family="'Noto Sans CJK SC, DejaVu Sans'" font-size="14" lengthAdjust="spacing" textLength="31.0379" x="559.6845" y="620.3679">(ACP</text><text fill="#000000" font-family="'Noto Sans CJK SC, DejaVu Sans'" font-size="14" lengthAdjust="spacing" textLength="3.136" x="590.7223" y="620.3679">&#160;</text><text fill="#000000" font-family="'Noto Sans CJK SC, DejaVu Sans'" font-size="14" lengthAdjust="spacing" textLength="47.5438" x="593.8583" y="620.3679">Bridge)</text></g><!--entity User--><g class="entity" data-qualified-name="User" data-source-line="18" id="ent0002"><ellipse cx="495.5444" cy="87.8561" fill="#FFFFFF" rx="8" ry="8" style="stroke:#000000;stroke-width:1;"/><path d="M495.5444,95.8561 L495.5444,122.8561 M482.5444,103.8561 L508.5444,103.8561 M495.5444,122.8561 L482.5444,137.8561 M495.5444,122.8561 L508.5444,137.8561" fill="none" style="stroke:#000000;stroke-width:1;"/><text fill="#000000" font-family="'Noto Sans CJK SC, DejaVu Sans'" font-size="14" lengthAdjust="spacing" textLength="13.9999" x="481.5445" y="164.096">&#29992;</text><text fill="#000000" font-family="'Noto Sans CJK SC, DejaVu Sans'" font-size="14" lengthAdjust="spacing" textLength="13.9999" x="495.5444" y="164.096">&#25143;</text></g><!--entity L1--><g class="entity" data-qualified-name="L1" data-source-line="20" id="ent0003"><rect fill="#E8F5E9" height="76.5438" rx="5" ry="5" style="stroke:#000000;stroke-width:1;" width="80.2538" x="358.4145" y="89.2261"/><text fill="#000000" font-family="'Noto Sans CJK SC, DejaVu Sans'" font-size="14" lengthAdjust="spacing" textLength="13.9999" x="376.4145" y="123.466">&#25509;</text><text fill="#000000" font-family="'Noto Sans CJK SC, DejaVu Sans'" font-size="14" lengthAdjust="spacing" textLength="13.9999" x="390.4144" y="123.466">&#20837;</text><text fill="#000000" font-family="'Noto Sans CJK SC, DejaVu Sans'" font-size="14" lengthAdjust="spacing" textLength="13.9999" x="404.4143" y="123.466">&#23618;</text><text fill="#000000" font-family="'Noto Sans CJK SC, DejaVu Sans'" font-size="14" lengthAdjust="spacing" textLength="44.2538" x="376.4145" y="143.7379">(Entry)</text></g><!--entity L2--><g class="entity" data-qualified-name="L2" data-source-line="21" id="ent0004"><rect fill="#FFF8E1" height="76.5438" rx="5" ry="5" style="stroke:#000000;stroke-width:1;" width="128.6096" x="195.2345" y="89.2261"/><text fill="#000000" font-family="'Noto Sans CJK SC, DejaVu Sans'" font-size="14" lengthAdjust="spacing" textLength="13.9999" x="213.2345" y="123.466">&#28040;</text><text fill="#000000" font-family="'Noto Sans CJK SC, DejaVu Sans'" font-size="14" lengthAdjust="spacing" textLength="13.9999" x="227.2344" y="123.466">&#24687;</text><text fill="#000000" font-family="'Noto Sans CJK SC, DejaVu Sans'" font-size="14" lengthAdjust="spacing" textLength="13.9999" x="241.2343" y="123.466">&#24635;</text><text fill="#000000" font-family="'Noto Sans CJK SC, DejaVu Sans'" font-size="14" lengthAdjust="spacing" textLength="13.9999" x="255.2343" y="123.466">&#32447;</text><text fill="#000000" font-family="'Noto Sans CJK SC, DejaVu Sans'" font-size="14" lengthAdjust="spacing" textLength="13.9999" x="269.2342" y="123.466">&#23618;</text><text fill="#000000" font-family="'Noto Sans CJK SC, DejaVu Sans'" font-size="14" lengthAdjust="spacing" textLength="60.4937" x="213.2345" y="143.7379">(Message</text><text fill="#000000" font-family="'Noto Sans CJK SC, DejaVu Sans'" font-size="14" lengthAdjust="spacing" textLength="3.136" x="273.7282" y="143.7379">&#160;</text><text fill="#000000" font-family="'Noto Sans CJK SC, DejaVu Sans'" font-size="14" lengthAdjust="spacing" textLength="28.9799" x="276.8642" y="143.7379">Bus)</text></g><!--entity L3--><g class="entity" data-qualified-name="L3" data-source-line="22" id="ent0005"><rect fill="#E3F2FD" height="76.5438" rx="5" ry="5" style="stroke:#000000;stroke-width:1;" width="135.9736" x="191.5545" y="241.1361"/><text fill="#000000" font-family="'Noto Sans CJK SC, DejaVu Sans'" font-size="14" lengthAdjust="spacing" textLength="13.9999" x="209.5545" y="275.376">&#26680;</text><text fill="#000000" font-family="'Noto Sans CJK SC, DejaVu Sans'" font-size="14" lengthAdjust="spacing" textLength="13.9999" x="223.5544" y="275.376">&#24515;</text><text fill="#000000" font-family="'Noto Sans CJK SC, DejaVu Sans'" font-size="14" lengthAdjust="spacing" textLength="13.9999" x="237.5543" y="275.376">&#32534;</text><text fill="#000000" font-family="'Noto Sans CJK SC, DejaVu Sans'" font-size="14" lengthAdjust="spacing" textLength="13.9999" x="251.5543" y="275.376">&#25490;</text><text fill="#000000" font-family="'Noto Sans CJK SC, DejaVu Sans'" font-size="14" lengthAdjust="spacing" textLength="13.9999" x="265.5542" y="275.376">&#23618;</text><text fill="#000000" font-family="'Noto Sans CJK SC, DejaVu Sans'" font-size="14" lengthAdjust="spacing" textLength="99.9736" x="209.5545" y="295.6479">(Orchestration)</text></g><!--entity L4--><g class="entity" data-qualified-name="L4" data-source-line="23" id="ent0006"><rect fill="#F3E5F5" height="76.5438" rx="5" ry="5" style="stroke:#000000;stroke-width:1;" width="105.9997" x="200.5445" y="409.6761"/><text fill="#000000" font-family="'Noto Sans CJK SC, DejaVu Sans'" font-size="14" lengthAdjust="spacing" textLength="13.9999" x="218.5445" y="443.916">&#20869;</text><text fill="#000000" font-family="'Noto Sans CJK SC, DejaVu Sans'" font-size="14" lengthAdjust="spacing" textLength="13.9999" x="232.5444" y="443.916">&#26680;</text><text fill="#000000" font-family="'Noto Sans CJK SC, DejaVu Sans'" font-size="14" lengthAdjust="spacing" textLength="13.9999" x="246.5443" y="443.916">&#25191;</text><text fill="#000000" font-family="'Noto Sans CJK SC, DejaVu Sans'" font-size="14" lengthAdjust="spacing" textLength="13.9999" x="260.5443" y="443.916">&#34892;</text><text fill="#000000" font-family="'Noto Sans CJK SC, DejaVu Sans'" font-size="14" lengthAdjust="spacing" textLength="13.9999" x="274.5442" y="443.916">&#23618;</text><text fill="#000000" font-family="'Noto Sans CJK SC, DejaVu Sans'" font-size="14" lengthAdjust="spacing" textLength="51.9678" x="218.5445" y="464.1879">(Kernel)</text></g><!--entity L6--><g class="entity" data-qualified-name="L6" data-source-line="24" id="ent0007"><rect fill="#E8EAF6" height="76.5438" rx="5" ry="5" style="stroke:#000000;stroke-width:1;" width="121.7076" x="31.6845" y="409.6761"/><text fill="#000000" font-family="'Noto Sans CJK SC, DejaVu Sans'" font-size="14" lengthAdjust="spacing" textLength="26.5719" x="49.6845" y="443.916">LLM</text><text fill="#000000" font-family="'Noto Sans CJK SC, DejaVu Sans'" font-size="14" lengthAdjust="spacing" textLength="3.136" x="76.2564" y="443.916">&#160;</text><text fill="#000000" font-family="'Noto Sans CJK SC, DejaVu Sans'" font-size="14" lengthAdjust="spacing" textLength="13.9999" x="79.3923" y="443.916">&#25552;</text><text fill="#000000" font-family="'Noto Sans CJK SC, DejaVu Sans'" font-size="14" lengthAdjust="spacing" textLength="13.9999" x="93.3923" y="443.916">&#20379;</text><text fill="#000000" font-family="'Noto Sans CJK SC, DejaVu Sans'" font-size="14" lengthAdjust="spacing" textLength="13.9999" x="107.3922" y="443.916">&#21830;</text><text fill="#000000" font-family="'Noto Sans CJK SC, DejaVu Sans'" font-size="14" lengthAdjust="spacing" textLength="13.9999" x="121.3922" y="443.916">&#23618;</text><text fill="#000000" font-family="'Noto Sans CJK SC, DejaVu Sans'" font-size="14" lengthAdjust="spacing" textLength="71.8057" x="49.6845" y="464.1879">(Providers)</text></g><!--entity Storage--><g class="entity" data-qualified-name="Storage" data-source-line="34" id="ent0014"><path d="M731.5445,415.1761 C731.5445,405.1761 784.5443,405.1761 784.5443,405.1761 C784.5443,405.1761 837.5442,405.1761 837.5442,415.1761 L837.5442,480.7199 C837.5442,490.7199 784.5443,490.7199 784.5443,490.7199 C784.5443,490.7199 731.5445,490.7199 731.5445,480.7199 L731.5445,415.1761" fill="#E0E0E0" style="stroke:#000000;stroke-width:1;"/><path d="M731.5445,415.1761 C731.5445,425.1761 784.5443,425.1761 784.5443,425.1761 C784.5443,425.1761 837.5442,425.1761 837.5442,415.1761" fill="none" style="stroke:#000000;stroke-width:1;"/><text fill="#000000" font-family="'Noto Sans CJK SC, DejaVu Sans'" font-size="14" lengthAdjust="spacing" textLength="13.9999" x="749.5445" y="453.416">&#25345;</text><text fill="#000000" font-family="'Noto Sans CJK SC, DejaVu Sans'" font-size="14" lengthAdjust="spacing" textLength="13.9999" x="763.5444" y="453.416">&#20037;</text><text fill="#000000" font-family="'Noto Sans CJK SC, DejaVu Sans'" font-size="14" lengthAdjust="spacing" textLength="13.9999" x="777.5443" y="453.416">&#21270;</text><text fill="#000000" font-family="'Noto Sans CJK SC, DejaVu Sans'" font-size="14" lengthAdjust="spacing" textLength="13.9999" x="791.5443" y="453.416">&#23384;</text><text fill="#000000" font-family="'Noto Sans CJK SC, DejaVu Sans'" font-size="14" lengthAdjust="spacing" textLength="13.9999" x="805.5442" y="453.416">&#20648;</text><text fill="#000000" font-family="'Noto Sans CJK SC, DejaVu Sans'" font-size="14" lengthAdjust="spacing" textLength="60.5358" x="749.5445" y="473.6879">(Storage)</text></g><!--entity Cloud--><g class="entity" data-qualified-name="Cloud" data-source-line="35" id="ent0015"><path d="M25.8417,245.3461 C29.4466,239.9287 34.5102,240.6115 37.8313,245.6707 C40.7321,239.3381 46.6694,237.4316 50.9698,244.275 C53.7095,238.7343 59.7677,238.427 63.2679,243.3841 C66.9477,239.1256 71.0525,238.2631 74.2828,243.8853 C77.9011,237.8868 83.5487,237.6529 87.9921,242.8774 C92.0249,237.7718 96.1824,236.2813 100.4653,242.6045 C104.3457,237.1277 110.1574,238.0831 112.8306,243.9236 C116.2865,238.8495 122.201,239.3943 124.7536,244.938 C128.4288,239.0619 133.7269,239.003 136.6508,245.6517 C139.165,238.7911 144.5686,239.5629 148.4617,244.2402 C155.7644,247.6636 156.97,252.2315 150.3515,257.621 C155.7108,261.586 155.7092,266.4683 149.4876,269.598 C155.3036,272.5862 154.8629,275.7681 150.4809,279.7538 C156.9725,283.6535 157.4821,288.525 150.5739,292.5223 C155.2433,295.3623 155.7613,300.8451 150.5474,303.6616 C155.8456,308.4217 153.7095,311.9943 148.4318,314.7337 C146.3502,320.4394 142.4208,322.5188 137.3557,317.9498 C134.1,323.6789 130.0874,324.8016 125.6645,319.1488 C122.8537,326.7328 116.0321,325.5459 112.2104,320.2008 C109.7015,325.7846 104.3045,327.2411 100.2134,321.9456 C97.5774,330.1072 92.8547,330.5065 86.7537,325.4826 C82.4823,329.249 78.7524,329.1836 76.3534,323.4358 C70.9759,329.0257 66.4002,328.1119 63.5095,320.9341 C59.2474,326.2513 53.0362,326.6666 50.4426,319.2253 C45.7743,324.2506 42.2448,322.6102 39.2012,317.4348 C35.361,323.215 29.5286,323.0497 26.9895,316.1788 C21.432,313.7467 20.0642,309.8811 23.928,304.8931 C18.0859,302.2635 16.4103,298.3235 20.7936,292.9993 C13.2868,291.4464 12.7706,287.3189 16.2175,281.4324 C11,275.3882 12.2348,271.5207 19.4158,268.5562 C14.2319,262.6833 17.3443,257.4677 24.0805,256.0356 C19.3938,252.2889 19.7318,247.3139 25.8417,245.3461" fill="#FCE4EC" style="stroke:#000000;stroke-width:1;"/><text fill="#000000" font-family="'Noto Sans CJK SC, DejaVu Sans'" font-size="14" lengthAdjust="spacing" textLength="13.9999" x="39.8945" y="275.376">&#22823;</text><text fill="#000000" font-family="'Noto Sans CJK SC, DejaVu Sans'" font-size="14" lengthAdjust="spacing" textLength="13.9999" x="53.8944" y="275.376">&#27169;</text><text fill="#000000" font-family="'Noto Sans CJK SC, DejaVu Sans'" font-size="14" lengthAdjust="spacing" textLength="13.9999" x="67.8943" y="275.376">&#22411;</text><text fill="#000000" font-family="'Noto Sans CJK SC, DejaVu Sans'" font-size="14" lengthAdjust="spacing" textLength="13.9999" x="81.8943" y="275.376">&#26381;</text><text fill="#000000" font-family="'Noto Sans CJK SC, DejaVu Sans'" font-size="14" lengthAdjust="spacing" textLength="13.9999" x="95.8942" y="275.376">&#21153;</text><text fill="#000000" font-family="'Noto Sans CJK SC, DejaVu Sans'" font-size="14" lengthAdjust="spacing" textLength="31.3039" x="39.8945" y="295.6479">(LLM</text><text fill="#000000" font-family="'Noto Sans CJK SC, DejaVu Sans'" font-size="14" lengthAdjust="spacing" textLength="3.136" x="71.1983" y="295.6479">&#160;</text><text fill="#000000" font-family="'Noto Sans CJK SC, DejaVu Sans'" font-size="14" lengthAdjust="spacing" textLength="58.8558" x="74.3343" y="295.6479">Services)</text></g><!--entity ACPAgents--><g class="entity" data-qualified-name="ACPAgents" data-source-line="36" id="ent0016"><path d="M745.3023,559.7575 C746.8826,553.7709 751.0121,553.3722 755.123,557.2339 C759.2499,550.2708 764.5718,550.8959 768.9774,556.9369 C771.2643,550.8459 775.274,549.6061 780.2962,553.9778 C783.5029,547.6901 788.3106,548.4071 792.3138,553.1066 C793.7595,546.5097 799.5303,545.4084 804.0262,549.8785 C808.2312,544.5676 812.2407,545.9893 814.7022,551.585 C819.8906,547.4991 824.5776,548.2315 826.8129,554.9082 C830.7647,550.0441 835.5335,549.7937 838.9615,555.5096 C843.4582,549.7272 849.2565,552.0876 851.3875,558.019 C861.6411,551.1181 865.9349,555.9444 868.832,565.7161 C869.6332,566.2158 869.7101,567.1498 868.8574,567.671 C876.5752,569.321 876.3676,574.7433 872.4595,579.8358 C880.497,582.8217 881.897,586.9496 875.9681,593.5172 C882.6275,595.0346 883.4167,600.7014 879.2478,605.2465 C884.4433,610.2028 882.9191,614.9545 877.0309,617.9815 C882.1228,623.5823 881.1206,628.9387 873.7864,631.5732 C880.5144,642.7185 873.7975,650.8302 861.832,649.5318 C862.1821,649.6333 862.2347,649.8209 862.039,650.1158 C859.8229,656.414 854.3652,656.4292 850.32,652.1404 C847.3725,657.6413 841.9625,658.56 838.7579,652.3952 C836.8913,658.2233 831.5552,659.0723 827.8266,654.3188 C824.5644,660.9201 820.486,662.1063 814.8493,656.9367 C811.0498,663.4133 806.8945,662.7957 802.5959,657.4542 C798.9544,663.3735 794.122,662.6668 791.2611,656.7093 C787.2773,661.1886 782.7903,661.2053 779.607,655.7684 C774.732,660.7954 770.3686,659.2139 767.9989,653.147 C764.0706,657.6494 760.7258,658.0915 756.8674,653.0652 C745.5115,660.2132 736.7542,656.6285 736.2545,642.5318 C736.5707,642.6553 736.5983,642.8712 736.3339,643.079 C729.656,639.3106 730.9389,633.3806 736.9596,630.2306 C730.4833,626.9334 730.0297,622.0408 735.8008,617.6184 C730.5526,613.9756 730.0393,608.3332 736.3251,605.1765 C729.1763,601.9861 729.3549,595.5245 736.0259,592.0199 C729.7729,588.2034 730.429,582.435 736.1523,578.7324 C729.5331,569.9469 732.0023,561.1605 743.2545,558.7161 C744.221,558.1468 745.2836,558.4628 745.3023,559.7575" fill="#E1F5FE" style="stroke:#000000;stroke-width:1;"/><text fill="#000000" font-family="'Noto Sans CJK SC, DejaVu Sans'" font-size="14" lengthAdjust="spacing" textLength="13.9999" x="751.2545" y="589.956">&#22806;</text><text fill="#000000" font-family="'Noto Sans CJK SC, DejaVu Sans'" font-size="14" lengthAdjust="spacing" textLength="13.9999" x="765.2544" y="589.956">&#37096;</text><text fill="#000000" font-family="'Noto Sans CJK SC, DejaVu Sans'" font-size="14" lengthAdjust="spacing" textLength="3.136" x="779.2543" y="589.956">&#160;</text><text fill="#000000" font-family="'Noto Sans CJK SC, DejaVu Sans'" font-size="14" lengthAdjust="spacing" textLength="26.3059" x="782.3903" y="589.956">ACP</text><text fill="#000000" font-family="'Noto Sans CJK SC, DejaVu Sans'" font-size="14" lengthAdjust="spacing" textLength="3.136" x="808.6962" y="589.956">&#160;</text><text fill="#000000" font-family="'Noto Sans CJK SC, DejaVu Sans'" font-size="14" lengthAdjust="spacing" textLength="13.9999" x="811.8322" y="589.956">&#26234;</text><text fill="#000000" font-family="'Noto Sans CJK SC, DejaVu Sans'" font-size="14" lengthAdjust="spacing" textLength="13.9999" x="825.8321" y="589.956">&#33021;</text><text fill="#000000" font-family="'Noto Sans CJK SC, DejaVu Sans'" font-size="14" lengthAdjust="spacing" textLength="13.9999" x="839.8321" y="589.956">&#20307;</text><text fill="#000000" font-family="'Noto Sans CJK SC, DejaVu Sans'" font-size="14" lengthAdjust="spacing" textLength="58.8138" x="751.2545" y="610.2279">(External</text><text fill="#000000" font-family="'Noto Sans CJK SC, DejaVu Sans'" font-size="14" lengthAdjust="spacing" textLength="3.136" x="810.0682" y="610.2279">&#160;</text><text fill="#000000" font-family="'Noto Sans CJK SC, DejaVu Sans'" font-size="14" lengthAdjust="spacing" textLength="26.3059" x="813.2042" y="610.2279">ACP</text><text fill="#000000" font-family="'Noto Sans CJK SC, DejaVu Sans'" font-size="14" lengthAdjust="spacing" textLength="49.2658" x="751.2545" y="630.4999">Agents)</text></g><!--reverse link L1 to User--><g class="link" data-entity-1="ent0003" data-entity-2="ent0002" data-link-type="dependency" data-source-line="38" id="lnk18"><path d="M445.0845,127.4961 C456.4045,127.4961 461.7245,127.4961 473.0445,127.4961" fill="none" id="L1-backto-User" style="stroke:#000000;stroke-width:1;"/><polygon fill="#000000" points="439.0845,127.4961,448.0845,131.4961,444.0845,127.4961,448.0845,123.4961,439.0845,127.4961" style="stroke:#000000;stroke-width:1;"/></g><!--reverse link L2 to L1--><g class="link" data-entity-1="ent0004" data-entity-2="ent0003" data-link-type="dependency" data-source-line="39" id="lnk20"><path d="M330.1545,127.4961 C341.4845,127.4961 346.8245,127.4961 358.1545,127.4961" fill="none" id="L2-backto-L1" style="stroke:#000000;stroke-width:1;"/><polygon fill="#000000" points="324.1545,127.4961,333.1545,131.4961,329.1545,127.4961,333.1545,123.4961,324.1545,127.4961" style="stroke:#000000;stroke-width:1;"/></g><!--link L2 to L3--><g class="link" data-entity-1="ent0004" data-entity-2="ent0005" data-link-type="dependency" data-source-line="40" id="lnk21"><path d="M259.5445,165.9361 C259.5445,188.7461 259.5445,211.7961 259.5445,234.6561" fill="none" id="L2-to-L3" style="stroke:#000000;stroke-width:1;"/><polygon fill="#000000" points="259.5445,240.6561,263.5445,231.6561,259.5445,235.6561,255.5445,231.6561,259.5445,240.6561" style="stroke:#000000;stroke-width:1;"/></g><!--link L3 to L4--><g class="link" data-entity-1="ent0005" data-entity-2="ent0006" data-link-type="dependency" data-source-line="41" id="lnk22"><path d="M258.1945,317.7761 C257.2145,345.1161 256.1013,376.04 255.1113,403.41" fill="none" id="L3-to-L4" style="stroke:#000000;stroke-width:1;"/><polygon fill="#000000" points="254.8945,409.4061,259.2172,400.5566,255.0752,404.4094,251.2224,400.2674,254.8945,409.4061" style="stroke:#000000;stroke-width:1;"/></g><!--reverse link L6 to L4--><g class="link" data-entity-1="ent0007" data-entity-2="ent0006" data-link-type="dependency" data-source-line="42" id="lnk24"><path d="M159.8645,447.9461 C175.3045,447.9461 184.7545,447.9461 200.1945,447.9461" fill="none" id="L6-backto-L4" style="stroke:#000000;stroke-width:1;"/><polygon fill="#000000" points="153.8645,447.9461,162.8645,451.9461,158.8645,447.9461,162.8645,443.9461,153.8645,447.9461" style="stroke:#000000;stroke-width:1;"/></g><!--link L4 to Gap--><g class="link" data-entity-1="ent0006" data-entity-2="ent0009" data-link-type="dependency" data-source-line="43" id="lnk25"><path d="M306.7645,447.9461 C322.6345,447.9461 332.4945,447.9461 348.3645,447.9461" fill="none" id="L4-to-Gap" style="stroke:#000000;stroke-width:1;"/><polygon fill="#000000" points="354.3645,447.9461,345.3645,443.9461,349.3645,447.9461,345.3645,451.9461,354.3645,447.9461" style="stroke:#000000;stroke-width:1;"/></g><!--reverse link Cloud to L6--><g class="link" data-entity-1="ent0015" data-entity-2="ent0007" data-link-type="dependency" data-source-line="45" id="lnk27"><path d="M88.2901,328.8622 C89.2501,355.5522 90.2645,383.6861 91.1845,409.3961" fill="none" id="Cloud-backto-L6" style="stroke:#000000;stroke-width:1;"/><polygon fill="#000000" points="88.0745,322.8661,84.4006,332.0041,88.2542,327.8629,92.3954,331.7165,88.0745,322.8661" style="stroke:#000000;stroke-width:1;"/></g><!--link L5 to Storage--><g class="link" data-entity-1="ent0008" data-entity-2="ent0014" data-link-type="dependency" data-source-line="46" id="lnk28"><path d="M704.5576,447.9461 C704.602,447.9461 704.6464,447.9461 704.6908,447.9461 C705.0459,447.9461 705.401,447.9461 705.7562,447.9461 C708.5973,447.9461 711.4388,447.9461 714.2807,447.9461 C719.9645,447.9461 719.6495,447.9461 725.3345,447.9461" fill="none" id="L5-to-Storage" style="stroke:#000000;stroke-width:1;"/><polygon fill="#000000" points="731.3345,447.9461,722.3345,443.9461,726.3345,447.9461,722.3345,451.9461,731.3345,447.9461" style="stroke:#000000;stroke-width:1;"/></g><!--link ACPBridge to ACPAgents--><g class="link" data-entity-1="ent0013" data-entity-2="ent0016" data-link-type="dependency" data-source-line="47" id="lnk29"><path d="M659.7245,604.1261 C682.4145,604.1261 699.0945,604.1261 721.7845,604.1261" fill="none" id="ACPBridge-to-ACPAgents" style="stroke:#000000;stroke-width:1;"/><polygon fill="#000000" points="727.7845,604.1261,718.7845,600.1261,722.7845,604.1261,718.7845,608.1261,727.7845,604.1261" style="stroke:#000000;stroke-width:1;"/></g><!--link Gap to L5T--><!--link L5T to L5M--><!--link L5T to L5P--><!--link L5P to ACPBridge--><?plantuml-src RPDTJnD158RlvrUCRM8qiKa_AC4RatRPDH6AZKMzK2-6xh0TMNQRsIb830aVGX2n45IYmQ1D9FH6nPW0Kf4_qztYl_3iRdUxLTkhC-SyvvnvvzrBeaAdAQxgX1d8cc96bN0oZIT8UKhZPirG9LCtEPwjC44ZUPLEafek5DCGOmJus9WfJ5mYXeMbMoEu95t3m_GnkLVppc8HiWgTYKPBOawdcDEo88Qcqxu2LMM6XeSYPxESLEypLLHmAfr4I301S8xgfcbWvztfnV9P--nLvtkhq_hWx1qvUyzG10w7uAS8m--EVorkK8vJIJGVAQrPj4oie31lSfLoNm31uHvGH0tXv_uIA9gVHuYK1Hp6Eg-Rpjfn31CBtxLWNDpN4VLMYZdrVNjbt_wszD2u8Xk2prtroaTJE2uFALdvUb_nqPgp-DLPQ7LEptsaG2qBvCJvcjK5qpYkACgGdEe3FvxOvykTdpjEVTi7R_DoXLgmjc2cqKKpC3EZf9NXA6glhW3jF3-uQ6puw0W5xVGkCm3ZCd9MoKQPqT42TZQtshzsxJUhFbJavWm3EOCr1ztxoJbb4A6k9N0Ctj5UtuLwV4KYLJB1T2OO3OYiTx6CdFIU9tYg6FQoDqarK1VZwFR78Eynp1ytJJtiD1wqwY---79edw-sJ-hE-WBiuiaxRV8vV1cNffZUumikB-TbkPztDhVRhIFWxQswlNdel7zfhpVSk-irZHcuD3pYTg9yXfLxjog249AiAAd-NZcfY9t6FjW36hX1dZDLepu5iHy2crAoYknwJYM2J7YIE1kBxHyhziQE_VcjlTI41YMm8mdeRW1iqlsZicxML93gqu7JRDXxByAztMViNrVoIkEA90_8KW_S-RtSnDx6mSVeklc90ACGtKlaDFWoh71xFmotHzxNaT3ff4ZS0EyZi7yOfH5uEg6QiuORPH3OD8m641Wmh1pq8iwqYXk29H02doLgLOYypH6OACntPK0zCSDKk252hh4I3ofCLQdnACY3Wv3helya2ls9OD5i4RbF_GyG3aT_0000?></g></svg>