<?plantuml 1.2026.1?><svg xmlns="http://www.w3.org/2000/svg" xmlns:xlink="http://www.w3.org/1999/xlink" contentStyleType="text/css" data-diagram-type="DESCRIPTION" height="533px" preserveAspectRatio="none" style="width:479px;height:533px;background:#FFFFFF;" version="1.1" viewBox="0 0 479 533" width="479px" zoomAndPan="magnify"><title>Aeloon Plugin SDK &#31995;&#32479;&#26550;&#26500;</title><defs/><g><g class="title" data-source-line="8"><text fill="#000000" font-family="'Noto Sans CJK SC, DejaVu Sans'" font-size="22" font-weight="bold" lengthAdjust="spacing" textLength="292.513" x="89.0502" y="48.5201">Aeloon Plugin SDK &#31995;&#32479;&#26550;&#26500;</text></g><!--cluster Plugins--><g class="cluster" data-qualified-name="Plugins" data-source-line="22" id="ent0008"><rect fill="#F3E5F5" height="208.36" rx="5" ry="5" style="stroke:#000000;stroke-width:1;" width="182" x="291.6133" y="173.3961"/><text fill="#000000" font-family="'Noto Sans CJK SC, DejaVu Sans'" font-size="14" font-weight="bold" lengthAdjust="spacing" textLength="135.8695" x="314.6786" y="199.636">&#25554;&#20214;&#23454;&#20363; (Instances)</text></g><!--entity PluginList--><g class="entity" data-qualified-name="Plugins.PluginList" data-source-line="23" id="ent0009"><rect fill="#F3E5F5" height="137.3596" rx="5" ry="5" style="stroke:#000000;stroke-width:1;" width="150.3235" x="307.4533" y="228.3961"/><text fill="#000000" font-family="'Noto Sans CJK SC, DejaVu Sans'" font-size="14" lengthAdjust="spacing" textLength="91.2796" x="325.4533" y="262.636">StatusPannel,</text><text fill="#000000" font-family="'Noto Sans CJK SC, DejaVu Sans'" font-size="14" lengthAdjust="spacing" textLength="94.7096" x="325.4533" y="282.9079">PluginCreator,</text><text fill="#000000" font-family="'Noto Sans CJK SC, DejaVu Sans'" font-size="14" lengthAdjust="spacing" textLength="114.3235" x="325.4533" y="303.1799">ScienceResearch,</text><text fill="#000000" font-family="'Noto Sans CJK SC, DejaVu Sans'" font-size="14" lengthAdjust="spacing" textLength="71.9037" x="325.4533" y="323.4518">SkillGraph,</text><text fill="#000000" font-family="'Noto Sans CJK SC, DejaVu Sans'" font-size="14" lengthAdjust="spacing" textLength="77.3637" x="325.4533" y="343.7237">AeloonWiki,</text><text fill="#000000" font-family="'Noto Sans CJK SC, DejaVu Sans'" font-size="14" lengthAdjust="spacing" textLength="3.136" x="402.817" y="343.7237">&#160;</text><text fill="#000000" font-family="'Noto Sans CJK SC, DejaVu Sans'" font-size="14" lengthAdjust="spacing" textLength="13.9999" x="405.953" y="343.7237">&#8230;</text></g><!--entity Manager--><g class="entity" data-qualified-name="Manager" data-source-line="15" id="ent0002"><rect fill="#E3F2FD" height="76.5438" rx="5" ry="5" style="stroke:#000000;stroke-width:1;" width="102.2197" x="168.5033" y="80.8561"/><text fill="#000000" font-family="'Noto Sans CJK SC, DejaVu Sans'" font-size="14" lengthAdjust="spacing" textLength="13.9999" x="186.5033" y="115.096">&#25554;</text><text fill="#000000" font-family="'Noto Sans CJK SC, DejaVu Sans'" font-size="14" lengthAdjust="spacing" textLength="13.9999" x="200.5033" y="115.096">&#20214;</text><text fill="#000000" font-family="'Noto Sans CJK SC, DejaVu Sans'" font-size="14" lengthAdjust="spacing" textLength="13.9999" x="214.5032" y="115.096">&#31649;</text><text fill="#000000" font-family="'Noto Sans CJK SC, DejaVu Sans'" font-size="14" lengthAdjust="spacing" textLength="13.9999" x="228.5032" y="115.096">&#29702;</text><text fill="#000000" font-family="'Noto Sans CJK SC, DejaVu Sans'" font-size="14" lengthAdjust="spacing" textLength="66.2197" x="186.5033" y="135.3679">(Manager)</text></g><!--entity Runtime--><g class="entity" data-qualified-name="Runtime" data-source-line="16" id="ent0003"><rect fill="#FFF8E1" height="76.5438" rx="5" ry="5" style="stroke:#000000;stroke-width:1;" width="105.9997" x="166.6133" y="258.8061"/><text fill="#000000" font-family="'Noto Sans CJK SC, DejaVu Sans'" font-size="14" lengthAdjust="spacing" textLength="13.9999" x="184.6133" y="293.046">&#24179;</text><text fill="#000000" font-family="'Noto Sans CJK SC, DejaVu Sans'" font-size="14" lengthAdjust="spacing" textLength="13.9999" x="198.6133" y="293.046">&#21488;</text><text fill="#000000" font-family="'Noto Sans CJK SC, DejaVu Sans'" font-size="14" lengthAdjust="spacing" textLength="13.9999" x="212.6132" y="293.046">&#25509;</text><text fill="#000000" font-family="'Noto Sans CJK SC, DejaVu Sans'" font-size="14" lengthAdjust="spacing" textLength="13.9999" x="226.6132" y="293.046">&#20837;</text><text fill="#000000" font-family="'Noto Sans CJK SC, DejaVu Sans'" font-size="14" lengthAdjust="spacing" textLength="13.9999" x="240.6131" y="293.046">&#23618;</text><text fill="#000000" font-family="'Noto Sans CJK SC, DejaVu Sans'" font-size="14" lengthAdjust="spacing" textLength="65.2397" x="184.6133" y="313.3179">(Runtime)</text></g><!--entity Extensions--><g class="entity" data-qualified-name="Extensions" data-source-line="17" id="ent0004"><rect fill="#FFF3E0" height="96.8157" rx="5" ry="5" style="stroke:#000000;stroke-width:1;" width="149.9455" x="65.6433" y="425.7561"/><text fill="#000000" font-family="'Noto Sans CJK SC, DejaVu Sans'" font-size="14" lengthAdjust="spacing" textLength="13.9999" x="83.6433" y="459.996">&#27880;</text><text fill="#000000" font-family="'Noto Sans CJK SC, DejaVu Sans'" font-size="14" lengthAdjust="spacing" textLength="13.9999" x="97.6433" y="459.996">&#20876;</text><text fill="#000000" font-family="'Noto Sans CJK SC, DejaVu Sans'" font-size="14" lengthAdjust="spacing" textLength="13.9999" x="111.6432" y="459.996">&#19982;</text><text fill="#000000" font-family="'Noto Sans CJK SC, DejaVu Sans'" font-size="14" lengthAdjust="spacing" textLength="13.9999" x="125.6432" y="459.996">&#25193;</text><text fill="#000000" font-family="'Noto Sans CJK SC, DejaVu Sans'" font-size="14" lengthAdjust="spacing" textLength="13.9999" x="139.6431" y="459.996">&#23637;</text><text fill="#000000" font-family="'Noto Sans CJK SC, DejaVu Sans'" font-size="14" lengthAdjust="spacing" textLength="26.2079" x="83.6433" y="480.2679">(API</text><text fill="#000000" font-family="'Noto Sans CJK SC, DejaVu Sans'" font-size="14" lengthAdjust="spacing" textLength="3.136" x="109.8512" y="480.2679">&#160;</text><text fill="#000000" font-family="'Noto Sans CJK SC, DejaVu Sans'" font-size="14" lengthAdjust="spacing" textLength="5.488" x="112.9872" y="480.2679">/</text><text fill="#000000" font-family="'Noto Sans CJK SC, DejaVu Sans'" font-size="14" lengthAdjust="spacing" textLength="3.136" x="118.4752" y="480.2679">&#160;</text><text fill="#000000" font-family="'Noto Sans CJK SC, DejaVu Sans'" font-size="14" lengthAdjust="spacing" textLength="34.8878" x="121.6112" y="480.2679">Hook</text><text fill="#000000" font-family="'Noto Sans CJK SC, DejaVu Sans'" font-size="14" lengthAdjust="spacing" textLength="3.136" x="156.499" y="480.2679">&#160;</text><text fill="#000000" font-family="'Noto Sans CJK SC, DejaVu Sans'" font-size="14" lengthAdjust="spacing" textLength="5.488" x="159.635" y="480.2679">/</text><text fill="#000000" font-family="'Noto Sans CJK SC, DejaVu Sans'" font-size="14" lengthAdjust="spacing" textLength="3.136" x="165.123" y="480.2679">&#160;</text><text fill="#000000" font-family="'Noto Sans CJK SC, DejaVu Sans'" font-size="14" lengthAdjust="spacing" textLength="29.3299" x="168.259" y="480.2679">Tool</text><text fill="#000000" font-family="'Noto Sans CJK SC, DejaVu Sans'" font-size="14" lengthAdjust="spacing" textLength="5.488" x="83.6433" y="500.5399">/</text><text fill="#000000" font-family="'Noto Sans CJK SC, DejaVu Sans'" font-size="14" lengthAdjust="spacing" textLength="3.136" x="89.1313" y="500.5399">&#160;</text><text fill="#000000" font-family="'Noto Sans CJK SC, DejaVu Sans'" font-size="14" lengthAdjust="spacing" textLength="47.5718" x="92.2673" y="500.5399">Service</text><text fill="#000000" font-family="'Noto Sans CJK SC, DejaVu Sans'" font-size="14" lengthAdjust="spacing" textLength="3.136" x="139.8391" y="500.5399">&#160;</text><text fill="#000000" font-family="'Noto Sans CJK SC, DejaVu Sans'" font-size="14" lengthAdjust="spacing" textLength="5.488" x="142.9751" y="500.5399">/</text><text fill="#000000" font-family="'Noto Sans CJK SC, DejaVu Sans'" font-size="14" lengthAdjust="spacing" textLength="3.136" x="148.4631" y="500.5399">&#160;</text><text fill="#000000" font-family="'Noto Sans CJK SC, DejaVu Sans'" font-size="14" lengthAdjust="spacing" textLength="31.0379" x="151.5991" y="500.5399">ACP)</text></g><!--entity Manifest--><g class="entity" data-qualified-name="Manifest" data-source-line="18" id="ent0005"><rect fill="#FFEBEE" height="76.5438" rx="5" ry="5" style="stroke:#000000;stroke-width:1;" width="155.2515" x="305.9833" y="80.8561"/><text fill="#000000" font-family="'Noto Sans CJK SC, DejaVu Sans'" font-size="14" lengthAdjust="spacing" textLength="13.9999" x="323.9833" y="115.096">&#37197;</text><text fill="#000000" font-family="'Noto Sans CJK SC, DejaVu Sans'" font-size="14" lengthAdjust="spacing" textLength="13.9999" x="337.9833" y="115.096">&#32622;</text><text fill="#000000" font-family="'Noto Sans CJK SC, DejaVu Sans'" font-size="14" lengthAdjust="spacing" textLength="13.9999" x="351.9832" y="115.096">&#19982;</text><text fill="#000000" font-family="'Noto Sans CJK SC, DejaVu Sans'" font-size="14" lengthAdjust="spacing" textLength="13.9999" x="365.9832" y="115.096">&#28165;</text><text fill="#000000" font-family="'Noto Sans CJK SC, DejaVu Sans'" font-size="14" lengthAdjust="spacing" textLength="13.9999" x="379.9831" y="115.096">&#21333;</text><text fill="#000000" font-family="'Noto Sans CJK SC, DejaVu Sans'" font-size="14" lengthAdjust="spacing" textLength="60.5078" x="323.9833" y="135.3679">(Manifest</text><text fill="#000000" font-family="'Noto Sans CJK SC, DejaVu Sans'" font-size="14" lengthAdjust="spacing" textLength="3.136" x="384.4911" y="135.3679">&#160;</text><text fill="#000000" font-family="'Noto Sans CJK SC, DejaVu Sans'" font-size="14" lengthAdjust="spacing" textLength="5.488" x="387.6271" y="135.3679">/</text><text fill="#000000" font-family="'Noto Sans CJK SC, DejaVu Sans'" font-size="14" lengthAdjust="spacing" textLength="3.136" x="393.1151" y="135.3679">&#160;</text><text fill="#000000" font-family="'Noto Sans CJK SC, DejaVu Sans'" font-size="14" lengthAdjust="spacing" textLength="46.9838" x="396.2511" y="135.3679">Config)</text></g><!--entity External--><g class="entity" data-qualified-name="External" data-source-line="19" id="ent0006"><path d="M24.4087,263.7044 C27.0582,256.2442 32.2723,256.7674 37.2162,261.2423 C40.8288,255.0795 46.7169,256.0604 49.7005,261.8967 C53.0068,255.0613 58.9134,256.1958 62.6727,261.409 C64.9847,254.7723 69.1272,254.5182 73.9033,258.8967 C78.916,254.0105 83.0027,253.9361 87.0198,260.0806 C91.9964,254.8956 95.5247,256.5079 98.8912,261.8895 C102.3287,255.7242 108.5458,255.3677 111.9829,261.89 C116.2605,256.4652 122.1238,255.7407 125.1089,263.2062 C130.7811,265.9887 131.0099,270.4086 126.4042,274.3824 C132.4049,276.3064 135.0874,279.4418 130.9653,285.5137 C138.4983,288.3671 138.2604,293.3664 132.9164,298.2002 C137.094,303.4547 136.3279,307.4322 129.7384,309.715 C135.4072,314.2612 133.6565,317.9065 128.3407,321.1046 C133.3332,326.5217 131.4316,331.9379 124.7579,334.1513 C121.1378,339.0695 117.3971,340.6166 113.111,334.8793 C109.1233,341.1401 103.213,340.7897 99.1587,334.9562 C95.7065,340.5438 90.6841,342.3255 86.4464,335.779 C83.0546,340.9295 78.6952,342.7445 74.4313,336.7164 C70.7394,341.7136 65.5481,341.2996 62.523,335.949 C58.6365,341.9632 52.8373,340.9562 50.7817,334.258 C47.0181,340.2794 41.2135,340.8321 38.0485,333.6795 C34.0328,340.6019 29.6068,340.9136 24.9588,334.2905 C16.6049,332.2474 15.969,326.2724 21.6093,320.764 C14.8939,319.6246 14.1611,315.0462 17.7613,310.1626 C11,307.6293 11.652,301.9172 16.2009,297.94 C11.7046,293.4358 12.95,288.6778 19.0114,286.8489 C13.4631,280.5079 15.3562,276.8565 22.517,273.9767 C18.1187,269.6215 18.1749,266.1017 24.4087,263.7044" fill="#FCE4EC" style="stroke:#000000;stroke-width:1;"/><text fill="#000000" font-family="'Noto Sans CJK SC, DejaVu Sans'" font-size="14" lengthAdjust="spacing" textLength="13.9999" x="38.6133" y="293.046">&#27169;</text><text fill="#000000" font-family="'Noto Sans CJK SC, DejaVu Sans'" font-size="14" lengthAdjust="spacing" textLength="13.9999" x="52.6133" y="293.046">&#22411;</text><text fill="#000000" font-family="'Noto Sans CJK SC, DejaVu Sans'" font-size="14" lengthAdjust="spacing" textLength="13.9999" x="66.6132" y="293.046">&#19982;</text><text fill="#000000" font-family="'Noto Sans CJK SC, DejaVu Sans'" font-size="14" lengthAdjust="spacing" textLength="13.9999" x="80.6132" y="293.046">&#25509;</text><text fill="#000000" font-family="'Noto Sans CJK SC, DejaVu Sans'" font-size="14" lengthAdjust="spacing" textLength="13.9999" x="94.6131" y="293.046">&#21475;</text><text fill="#000000" font-family="'Noto Sans CJK SC, DejaVu Sans'" font-size="14" lengthAdjust="spacing" textLength="31.3039" x="38.6133" y="313.3179">(LLM</text><text fill="#000000" font-family="'Noto Sans CJK SC, DejaVu Sans'" font-size="14" lengthAdjust="spacing" textLength="3.136" x="69.9172" y="313.3179">&#160;</text><text fill="#000000" font-family="'Noto Sans CJK SC, DejaVu Sans'" font-size="14" lengthAdjust="spacing" textLength="5.488" x="73.0532" y="313.3179">/</text><text fill="#000000" font-family="'Noto Sans CJK SC, DejaVu Sans'" font-size="14" lengthAdjust="spacing" textLength="3.136" x="78.5412" y="313.3179">&#160;</text><text fill="#000000" font-family="'Noto Sans CJK SC, DejaVu Sans'" font-size="14" lengthAdjust="spacing" textLength="26.2079" x="81.6772" y="313.3179">API)</text></g><!--entity Storage--><g class="entity" data-qualified-name="Storage" data-source-line="20" id="ent0007"><path d="M250.3433,441.3961 C250.3433,431.3961 298.6112,431.3961 298.6112,431.3961 C298.6112,431.3961 346.8791,431.3961 346.8791,441.3961 L346.8791,506.9399 C346.8791,516.9399 298.6112,516.9399 298.6112,516.9399 C298.6112,516.9399 250.3433,516.9399 250.3433,506.9399 L250.3433,441.3961" fill="#ECEFF1" style="stroke:#000000;stroke-width:1;"/><path d="M250.3433,441.3961 C250.3433,451.3961 298.6112,451.3961 298.6112,451.3961 C298.6112,451.3961 346.8791,451.3961 346.8791,441.3961" fill="none" style="stroke:#000000;stroke-width:1;"/><text fill="#000000" font-family="'Noto Sans CJK SC, DejaVu Sans'" font-size="14" lengthAdjust="spacing" textLength="13.9999" x="268.3433" y="479.636">&#25554;</text><text fill="#000000" font-family="'Noto Sans CJK SC, DejaVu Sans'" font-size="14" lengthAdjust="spacing" textLength="13.9999" x="282.3433" y="479.636">&#20214;</text><text fill="#000000" font-family="'Noto Sans CJK SC, DejaVu Sans'" font-size="14" lengthAdjust="spacing" textLength="13.9999" x="296.3432" y="479.636">&#23384;</text><text fill="#000000" font-family="'Noto Sans CJK SC, DejaVu Sans'" font-size="14" lengthAdjust="spacing" textLength="13.9999" x="310.3432" y="479.636">&#20648;</text><text fill="#000000" font-family="'Noto Sans CJK SC, DejaVu Sans'" font-size="14" lengthAdjust="spacing" textLength="60.5358" x="268.3433" y="499.9079">(Storage)</text></g><!--link Manager to Runtime--><g class="link" data-entity-1="ent0002" data-entity-2="ent0003" data-link-type="dependency" data-source-line="27" id="lnk10"><path d="M219.6133,157.8761 C219.6133,187.5661 219.6133,222.7261 219.6133,252.3961" fill="none" id="Manager-to-Runtime" style="stroke:#000000;stroke-width:1;"/><polygon fill="#000000" points="219.6133,258.3961,223.6133,249.3961,219.6133,253.3961,215.6133,249.3961,219.6133,258.3961" style="stroke:#000000;stroke-width:1;"/></g><!--link Runtime to Extensions--><g class="link" data-entity-1="ent0003" data-entity-2="ent0004" data-link-type="dependency" data-source-line="28" id="lnk11"><path d="M202.6633,335.6461 C190.8333,361.8661 177.4114,391.6272 164.6714,419.8572" fill="none" id="Runtime-to-Extensions" style="stroke:#000000;stroke-width:1;"/><polygon fill="#000000" points="162.2033,425.3261,169.5514,418.7682,164.2601,420.7687,162.2595,415.4774,162.2033,425.3261" style="stroke:#000000;stroke-width:1;"/></g><!--link Manager to Manifest--><g class="link" data-entity-1="ent0002" data-entity-2="ent0005" data-link-type="dependency" data-source-line="29" id="lnk12"><path d="M271.1833,119.1261 C282.7533,119.1261 288.3133,119.1261 299.8833,119.1261" fill="none" id="Manager-to-Manifest" style="stroke:#000000;stroke-width:1;"/><polygon fill="#000000" points="305.8833,119.1261,296.8833,115.1261,300.8833,119.1261,296.8833,123.1261,305.8833,119.1261" style="stroke:#000000;stroke-width:1;"/></g><!--reverse link External to Runtime--><g class="link" data-entity-1="ent0006" data-entity-2="ent0003" data-link-type="dependency" data-source-line="30" id="lnk14"><path d="M138.0733,297.0761 C149.4733,297.0761 154.8633,297.0761 166.2633,297.0761" fill="none" id="External-backto-Runtime" style="stroke:#000000;stroke-width:1;"/><polygon fill="#000000" points="132.0733,297.0761,141.0733,301.0761,137.0733,297.0761,141.0733,293.0761,132.0733,297.0761" style="stroke:#000000;stroke-width:1;"/></g><!--link Runtime to Storage--><g class="link" data-entity-1="ent0003" data-entity-2="ent0007" data-link-type="dependency" data-source-line="31" id="lnk15"><path d="M236.5633,335.6461 C249.2133,363.6761 264.0367,396.5266 277.1467,425.5966" fill="none" id="Runtime-to-Storage" style="stroke:#000000;stroke-width:1;"/><polygon fill="#000000" points="279.6133,431.0661,279.5597,421.2174,277.5578,426.5082,272.267,424.5063,279.6133,431.0661" style="stroke:#000000;stroke-width:1;"/></g><!--link Runtime to PluginList--><g class="link" data-entity-1="ent0003" data-entity-2="ent0009" data-link-type="dependency" data-source-line="32" id="lnk16"><path d="M273.0933,297.0761 C284.5033,297.0761 289.9133,297.0761 301.3233,297.0761" fill="none" id="Runtime-to-PluginList" style="stroke:#000000;stroke-width:1;"/><polygon fill="#000000" points="307.3233,297.0761,298.3233,293.0761,302.3233,297.0761,298.3233,301.0761,307.3233,297.0761" style="stroke:#000000;stroke-width:1;"/></g><?plantuml-src PPBFQnD15CVlyrSyqqk559F6Gaz2tEvgx0z2L-p5otHtiXapcGcpiqOHGOejI6qZGi5Jf4Wb7YoMGgaK_MEac-1_uKjsaztYNcRdpNo-RzxtlLkcoTeCEe9oIS8MbnsgQHksgTSAj8gaRocXD7IRtB3SkSyQD1B6KT9iKEGB6yeeSAaCmNgq2gvLX1NsZ3w99h52ZkoWCWsOQruA1ffvXif0i1iNV9_B09PpiQwcdItkcoQK5qk466uGhZAXb8IwY08kmLrPXT7vrUZgyx1_CUo_9JbybWPU4S1lCobCIwQXN2Al2I7PbSAmz_7wwc9qUZpwiFTKpgzJYU_Ljmj0GqWtC6TNd4Ld9O_5Fy_Zte_XuKcyUnAVxI2v6Kd3somXqmtCEOwpR9Tl93mVn7llhoyFX---nMT7I5RhDRW33vLguV9OAO6Bo_HpxZ7ygrhrHDD-OPWCkKBNnx8LkvIN_RjxCFfrEfQzt8qFZf9IU8E51ZKi9Hiyc1MLX574lc_Rn1Cgyl5TW-EulpyMmA9wNr1WRMrzdBzUo_9hIGM2bdtNjeXF3TscuSp4-FkdU6U0e6kKHkCIBDsWYPRjE6L2qfcOKQVzwz_xC5-J8TRYiJ31aaQFIwtOIyxIf9UvSbr3JHJMgPHC5DFBbcOKanN1zJX3fKqMCggz9WPQN8W7E5RudmpI5c_n8lnvypMNR8rFN9dacup9jFyBlkhAXNlJhf9fTwVnh3CPeddGD7WsjJk316kO51hR-PzQQbWMdqfbhoJ_0000?></g></svg>
